<?xml version="1.0" encoding="UTF-8"?>
<svg width="278px" height="77px" viewBox="0 0 278 77" version="1.1" xmlns="http://www.w3.org/2000/svg" xmlns:xlink="http://www.w3.org/1999/xlink">
    <title>Untitled</title>
    <defs>
        <polygon id="path-1" points="36.24 10.44 24 10.44 24 42.84 12.3 42.84 12.3 10.44 -2.84217094e-14 10.44 -2.84217094e-14 0.24 36.24 0.24"></polygon>
        <path d="M40.5,42.84 L40.5,0.24 L60.06,0.24 C62.14,0.24 64.06,0.66 65.82,1.5 C67.58,2.34 69.1,3.47 70.38,4.89 C71.66,6.31 72.65,7.9 73.35,9.66 C74.05,11.42 74.4,13.2 74.4,15 C74.4,16.64 74.16,18.22 73.68,19.74 C73.2,21.26 72.5,22.65 71.58,23.91 C70.66,25.17 69.56,26.26 68.28,27.18 L77.28,42.84 L64.44,42.84 L56.94,29.76 L52.2,29.76 L52.2,42.84 L40.5,42.84 Z M52.2,19.56 L59.58,19.56 C60.06,19.56 60.52,19.38 60.96,19.02 C61.4,18.66 61.77,18.14 62.07,17.46 C62.37,16.78 62.52,15.96 62.52,15 C62.52,14 62.35,13.17 62.01,12.51 C61.67,11.85 61.25,11.34 60.75,10.98 C60.25,10.62 59.76,10.44 59.28,10.44 L52.2,10.44 L52.2,19.56 Z" id="path-2"></path>
        <path d="M90.84,0.24 L103.92,0.24 L117.48,42.84 L105.6,42.84 L103.02,34.5 L91.68,34.5 L89.16,42.84 L77.22,42.84 L90.84,0.24 Z M101.16,26.7 L97.38,11.7 L93.42,26.7 L101.16,26.7 Z" id="path-3"></path>
        <path d="M116.94,21.18 C116.94,18.58 117.43,16.03 118.41,13.53 C119.39,11.03 120.82,8.76 122.7,6.72 C124.58,4.68 126.87,3.05 129.57,1.83 C132.27,0.61 135.32,0 138.72,0 C142.8,0 146.36,0.85 149.4,2.55 C152.44,4.25 154.7,6.5 156.18,9.3 L147.24,15.66 C146.72,14.26 145.97,13.18 144.99,12.42 C144.01,11.66 142.95,11.13 141.81,10.83 C140.67,10.53 139.56,10.38 138.48,10.38 C136.8,10.38 135.35,10.71 134.13,11.37 C132.91,12.03 131.91,12.9 131.13,13.98 C130.35,15.06 129.77,16.26 129.39,17.58 C129.01,18.9 128.82,20.22 128.82,21.54 C128.82,23.02 129.04,24.44 129.48,25.8 C129.92,27.16 130.56,28.37 131.4,29.43 C132.24,30.49 133.27,31.32 134.49,31.92 C135.71,32.52 137.08,32.82 138.6,32.82 C139.68,32.82 140.78,32.65 141.9,32.31 C143.02,31.97 144.04,31.42 144.96,30.66 C145.88,29.9 146.58,28.88 147.06,27.6 L156.6,33.3 C155.76,35.38 154.36,37.16 152.4,38.64 C150.44,40.12 148.22,41.25 145.74,42.03 C143.26,42.81 140.8,43.2 138.36,43.2 C135.2,43.2 132.31,42.57 129.69,41.31 C127.07,40.05 124.81,38.37 122.91,36.27 C121.01,34.17 119.54,31.81 118.5,29.19 C117.46,26.57 116.94,23.9 116.94,21.18 Z" id="path-4"></path>
        <polygon id="path-5" points="160.74 42.84 160.74 0.24 172.44 0.24 172.44 16.44 185.4 0.24 198.6 0.24 183.12 19.32 199.68 42.84 186.24 42.84 175.68 27.18 172.44 30.54 172.44 42.84"></polygon>
        <polygon id="path-6" points="232.5 32.64 232.5 42.84 202.14 42.84 202.14 0.24 231.96 0.24 231.96 10.44 213.84 10.44 213.84 16.44 229.32 16.44 229.32 25.92 213.84 25.92 213.84 32.64"></polygon>
    </defs>
    <g id="Page-1" stroke="none" stroke-width="1" fill="none" fill-rule="evenodd">
        <g id="Group" transform="translate(0.600000, 0.000000)" fill-rule="nonzero">
            <g>
                <g id="TRACKER" transform="translate(0.000000, 32.160000)">
                    <g id="Path">
                        <use fill="#FFFFFF" xlink:href="#path-1"></use>
                        <use fill="#252525" xlink:href="#path-1"></use>
                    </g>
                    <g id="Shape">
                        <use fill="#FFFFFF" xlink:href="#path-2"></use>
                        <use fill="#252525" xlink:href="#path-2"></use>
                    </g>
                    <g id="Shape">
                        <use fill="#FFFFFF" xlink:href="#path-3"></use>
                        <use fill="#252525" xlink:href="#path-3"></use>
                    </g>
                    <g id="Path">
                        <use fill="#FFFFFF" xlink:href="#path-4"></use>
                        <use fill="#0E96D5" xlink:href="#path-4"></use>
                    </g>
                    <g id="Path">
                        <use fill="#FFFFFF" xlink:href="#path-5"></use>
                        <use fill="#252525" xlink:href="#path-5"></use>
                    </g>
                    <g id="Path">
                        <use fill="#FFFFFF" xlink:href="#path-6"></use>
                        <use fill="#252525" xlink:href="#path-6"></use>
                    </g>
                </g>
                <text id="My" fill="#BFBFBF" font-family="Raleway-Black, Raleway" font-size="21" font-weight="800">
                    <tspan x="0.4" y="20">My</tspan>
                </text>
                <g id="Indian_Rupee_Symbol" transform="translate(240.400000, 32.000000)" fill="#000000" stroke="#000000" stroke-width="2.099084">
                    <path d="M19.8333349,43 L1.6790128,23.4969873 L1.78395086,19.632337 C10.3040653,20.1373128 16.9279758,19.3629416 18.4691362,12.4422847 L0.314816158,12.3524128 L3.25308752,8.12825779 L17.73457,8.30801013 C15.5279828,4.36933187 9.45962841,3.88537638 0,4.17373385 L3.25308752,0.0394541371 L34,0 L30.9567907,4.0838551 L22.4567908,4.0838551 C24.0103426,5.49190678 25.1473454,7.11212146 25.1851842,8.48775903 L34,8.39788544 L30.9567907,12.4422847 L25.0802482,12.5321634 C24.1628602,18.5651961 17.7070893,22.1372057 9.54938398,22.9577337 L27.825277,42.9961453 L19.8333349,43 L19.8333349,43 L19.8333349,43 Z" id="path4158"></path>
                </g>
            </g>
        </g>
    </g>
</svg>